PathFileType	4	(X/Y/Z)	./resultDataOpenSim/trcMotMarkerGrf/sub06/qtm-05-01.trc
DataRate	CameraRate	NumFrames	NumMarkers	Units	OrigDataRate	OrigDataStartFrame	OrigNumFrames
250.000000	250.000000	13	24	m	250.000000	332	531
Frame#	Time	L.Toe.Tip			R.Toe.Tip			L.Ankle.Lat			R.Ankle.Lat			L.Ankle.Med			R.Ankle.Med			L.Heel			R.Heel			L.Knee.Lat			R.Knee.Lat			L.Knee.Med			R.Knee.Med			L.Thigh.Upper			R.Thigh.Upper			L.ASIS			R.ASIS			V.Sacral			L.Acromium			R.Acromium			C7			L.Elbow			R.Elbow			L.Wrist.Lat			R.Wrist.Lat
		X1	Y1	Z1	X2	Y2	Z2	X3	Y3	Z3	X4	Y4	Z4	X5	Y5	Z5	X6	Y6	Z6	X7	Y7	Z7	X8	Y8	Z8	X9	Y9	Z9	X10	Y10	Z10	X11	Y11	Z11	X12	Y12	Z12	X13	Y13	Z13	X14	Y14	Z14	X15	Y15	Z15	X16	Y16	Z16	X17	Y17	Z17	X18	Y18	Z18	X19	Y19	Z19	X20	Y20	Z20	X21	Y21	Z21	X22	Y22	Z22	X23	Y23	Z23	X24	Y24	Z24

332	1.324	0.43419774	0.11729981	-0.063401514	0.84146153	0.034974702	0.10473361	0.43873546	0.24883062	-0.082791878	0.70506297	0.059763798	0.12253813	0.46346363	0.24715225	-0.0016969877	0.73220629	0.081402509	0.036152582	0.39505298	0.30340267	-0.026639199	0.6524116	0.040346523	0.059193317	0.78168311	0.3882877	-0.12537643	0.82855797	0.42510495	0.17250418	0.78814502	0.37022318	-0.0014534387	0.79471765	0.42173552	0.049609977	0.66532971	0.7629889	-0.099641401	0.70518433	0.78372619	0.24196152	0.7442615	0.81532681	-0.06464996	0.78049463	0.83665199	0.17676878	0.5742707	0.89814296	0.079839364	0.69581157	1.3057711	-0.11413271	0.71660071	1.2910005	0.24679052	0.63096248	1.3378591	0.070958639	0.66361777	0.98343642	-0.17394335	0.64621638	0.98450525	0.32575964	0.84885618	0.81976398	-0.18065747	0.82279227	0.8152767	0.36029891
333	1.328	0.44748659	0.11904811	-0.063855463	0.84142651	0.034977251	0.10470653	0.45015757	0.25054029	-0.08283193	0.70500163	0.05973889	0.12258885	0.47496766	0.24901383	-0.0018237675	0.73214796	0.081560665	0.036230168	0.40575245	0.30456328	-0.02663978	0.6523929	0.040443153	0.059248407	0.7921603	0.39225224	-0.12494028	0.82877551	0.42541318	0.17239207	0.79804977	0.37433684	-0.00067145863	0.79471351	0.42219703	0.049493774	0.67137916	0.76585685	-0.10006743	0.70978315	0.78561113	0.24223386	0.75002265	0.81803888	-0.063977142	0.78534989	0.83883383	0.17726962	0.57943894	0.90042267	0.080231668	0.70052877	1.3080717	-0.11401468	0.72150965	1.2936748	0.24685621	0.63572563	1.3401553	0.071057278	0.66690329	0.98604636	-0.17340199	0.65276725	0.98664015	0.32589818	0.85033954	0.82051923	-0.18139541	0.83167322	0.81930865	0.35868617
334	1.332	0.46095731	0.12059148	-0.064336875	0.8413939	0.034978035	0.10467824	0.46160207	0.2519934	-0.082865643	0.70490927	0.059722121	0.12265687	0.4864177	0.25065385	-0.0018892437	0.73209015	0.081726281	0.036312108	0.41640985	0.30542294	-0.026666953	0.65234299	0.040550414	0.059348115	0.80248973	0.39624319	-0.12448186	0.82893325	0.42576352	0.17226678	0.80785334	0.37849521	0.00014821541	0.79460892	0.42274181	0.049379959	0.67758534	0.76877404	-0.10034031	0.71442709	0.78744387	0.24247277	0.75586459	0.82078531	-0.06329268	0.79021151	0.84097205	0.1777745	0.5846193	0.90267227	0.080717275	0.70526385	1.3103655	-0.1139251	0.72640927	1.2963267	0.24691498	0.64048048	1.3424288	0.071152124	0.67020449	0.98865656	-0.1728561	0.65931871	0.98878182	0.32603061	0.85176565	0.82128408	-0.18214965	0.84047684	0.82335248	0.35705014
335	1.336	0.47456934	0.12191106	-0.064794493	0.84135952	0.034978377	0.10465185	0.47307116	0.25317931	-0.082897948	0.70483462	0.059727114	0.12273071	0.49777063	0.25207429	-0.001864401	0.73203907	0.081897425	0.036403282	0.42702089	0.30597455	-0.026714077	0.65227427	0.040672896	0.059466327	0.81267935	0.40025147	-0.12399737	0.82903613	0.42615246	0.17213059	0.8177394	0.38265732	0.00094247986	0.79447721	0.42336285	0.049258198	0.68394107	0.77170562	-0.1003552	0.71908208	0.78921921	0.24267377	0.76166077	0.82352155	-0.062650451	0.79508647	0.84306355	0.17828807	0.58980474	0.90488974	0.081266527	0.71003542	1.3126509	-0.11387959	0.73130353	1.2989557	0.24696803	0.64523111	1.3446688	0.071250871	0.67351518	0.99126137	-0.17229913	0.66587223	0.99092723	0.32616019	0.8531622	0.82204951	-0.18289726	0.84919544	0.82740383	0.35539076
336	1.34	0.4883002	0.12298783	-0.06520504	0.84131933	0.034979474	0.10463188	0.48457503	0.25410168	-0.082935382	0.70481149	0.059748522	0.12279601	0.50907566	0.2532686	-0.0017844063	0.73199648	0.082072394	0.036505918	0.43759307	0.30621314	-0.026781775	0.6522002	0.040819405	0.059583822	0.82277312	0.40425836	-0.12346105	0.82908894	0.42657069	0.17198724	0.82773212	0.38679903	0.0017005167	0.79421633	0.42404664	0.049110925	0.69032629	0.77460448	-0.10020309	0.7237793	0.79094572	0.24280313	0.76732723	0.8262078	-0.06209199	0.79997387	0.84510251	0.17880658	0.5949768	0.90707539	0.081853002	0.71483691	1.3149187	-0.11386984	0.73619707	1.3015587	0.24701766	0.64998276	1.3468705	0.071353154	0.67681224	0.99384452	-0.17171856	0.67240605	0.99307104	0.32629253	0.85454582	0.8228052	-0.18362314	0.85782702	0.83145158	0.35371077
337	1.344	0.50216663	0.12381379	-0.065582564	0.8412734	0.034981437	0.10462166	0.49614116	0.25477222	-0.082997524	0.70482558	0.059781767	0.12285544	0.52041158	0.25423441	-0.0017039017	0.7319561	0.08225224	0.036624148	0.44815681	0.30613341	-0.026890817	0.65212709	0.040997644	0.05969936	0.83281851	0.40824548	-0.12284544	0.82909773	0.42700985	0.17184475	0.83775506	0.39091415	0.0024415636	0.79370242	0.42477816	0.048919995	0.69664169	0.77744627	-0.1000523	0.72857679	0.79263073	0.24279255	0.7729105	0.82884094	-0.0615971	0.80486462	0.84708242	0.17932006	0.60011449	0.90922977	0.082451759	0.71963522	1.3171558	-0.1138604	0.74109204	1.3041312	0.24706409	0.65473557	1.349037	0.071453985	0.68007549	0.99638777	-0.17110091	0.6788895	0.99520493	0.32642893	0.85591597	0.82354666	-0.18432231	0.86638252	0.8354932	0.35201678
338	1.348	0.51620377	0.12440483	-0.065949953	0.84122748	0.034984386	0.10461995	0.50780152	0.25519766	-0.083111219	0.70484844	0.05983483	0.12292063	0.53183351	0.25497554	-0.001660089	0.73190749	0.082441744	0.036768626	0.45874622	0.30573296	-0.027065568	0.65205439	0.041203038	0.059819981	0.84283899	0.41219725	-0.12213827	0.82907111	0.42746603	0.17171435	0.84773871	0.39501374	0.0031884453	0.79310119	0.42553559	0.048715511	0.70288734	0.78023686	-0.099995203	0.73343476	0.79424943	0.24258665	0.77851249	0.83144328	-0.061114632	0.80974805	0.8490003	0.17981983	0.60519688	0.91135327	0.083037035	0.72440619	1.3193537	-0.11381881	0.74598917	1.3066686	0.24710537	0.65948603	1.3511704	0.071550101	0.68331819	0.99888806	-0.17044872	0.6853108	0.99732136	0.32656689	0.85726798	0.82427282	-0.18499898	0.87488793	0.83954315	0.35031894
339	1.352	0.53043198	0.12479618	-0.066311612	0.84119122	0.034989476	0.10462084	0.51956372	0.25536115	-0.083277258	0.70486682	0.059922771	0.12299947	0.5433189	0.25549119	-0.0016501135	0.73184421	0.082650203	0.036950125	0.46936236	0.30501458	-0.027299819	0.65197606	0.041418229	0.05995036	0.85283023	0.41609986	-0.12134521	0.82901737	0.42793673	0.17160598	0.85765946	0.3991201	0.0039689346	0.79273219	0.42629872	0.048553405	0.70909415	0.7829899	-0.10002532	0.73815728	0.79573889	0.24224839	0.78417226	0.83403136	-0.060615897	0.81461828	0.85085665	0.18030468	0.61020378	0.91344595	0.083580552	0.72915358	1.3215119	-0.11374272	0.7508896	1.3091668	0.24713949	0.66423199	1.3532652	0.071644107	0.68658825	1.0013593	-0.1697862	0.69167951	0.9994156	0.3267045	0.8586016	0.8249894	-0.1856618	0.88336904	0.8436192	0.34862393
340	1.356	0.54485846	0.12501507	-0.066658145	0.84117078	0.034997308	0.10462022	0.53140191	0.25521996	-0.083456468	0.70487694	0.060051522	0.12309372	0.55478303	0.25576738	-0.0016368599	0.73177376	0.082889238	0.037161583	0.4799771	0.30398115	-0.027551751	0.6518866	0.041629646	0.060092449	0.86275605	0.41995188	-0.12049265	0.82894123	0.42841643	0.17152518	0.86752143	0.40324955	0.0048087383	0.79265111	0.42704492	0.048433499	0.71524941	0.78570738	-0.10011365	0.74256974	0.79705389	0.24200894	0.78985292	0.83660209	-0.060104925	0.81947295	0.852651	0.18077778	0.61512019	0.91550576	0.084052299	0.73389078	1.3236325	-0.11365058	0.75579541	1.3116224	0.2471654	0.66897725	1.3553124	0.071741611	0.68992494	1.0038137	-0.16913711	0.69801106	1.0014835	0.32684014	0.85991767	0.82570878	-0.18632016	0.89182247	0.84772085	0.34692356
341	1.36	0.55948388	0.12506526	-0.06698007	0.84115754	0.035005193	0.10462524	0.54327585	0.25474772	-0.083603952	0.70487275	0.060208791	0.1232017	0.56622086	0.25577821	-0.0015992578	0.73171778	0.083164423	0.037372801	0.49058176	0.30263282	-0.02778877	0.6517935	0.041838987	0.060246233	0.87255539	0.42376999	-0.11962156	0.82884644	0.42889816	0.17147337	0.87730719	0.40739091	0.005701921	0.79261687	0.42773865	0.048300924	0.7212968	0.78838262	-0.10026245	0.74675062	0.79822225	0.24211876	0.79552124	0.83914363	-0.059598621	0.8243114	0.85438194	0.18124194	0.61994675	0.91752527	0.084427372	0.73862467	1.3257153	-0.1135564	0.76070827	1.3140313	0.24718233	0.67372957	1.3573052	0.071844464	0.69332569	1.0062483	-0.16850452	0.7043128	1.0035187	0.32697013	0.86121429	0.82643616	-0.18698198	0.90020757	0.85182509	0.34519465
342	1.364	0.57428222	0.12493856	-0.067269096	0.84113262	0.035008622	0.10465004	0.55515864	0.25397181	-0.08370561	0.7048512	0.060376806	0.12332088	0.57776943	0.25548809	-0.0015536903	0.73169477	0.083467692	0.037555402	0.50121285	0.30097092	-0.028029016	0.65172527	0.042050522	0.060394084	0.88217372	0.42757295	-0.1187649	0.82874004	0.42937893	0.17144962	0.88696102	0.41150329	0.0066069491	0.79244765	0.42836566	0.048123876	0.72720161	0.79101705	-0.10048149	0.75095494	0.7993162	0.24258229	0.80121459	0.84165353	-0.05911743	0.82913591	0.85605072	0.18169975	0.62470724	0.91949066	0.084700694	0.74335822	1.3277559	-0.11346102	0.76562813	1.3163894	0.24718984	0.67849202	1.3592403	0.071950241	0.69676522	1.0086511	-0.1678752	0.71057929	1.0055115	0.32708846	0.86249112	0.82715814	-0.18764321	0.90848259	0.85590375	0.34342375
343	1.368	0.58917968	0.12462017	-0.067508904	0.84109093	0.035007092	0.10469684	0.56706226	0.25294257	-0.083777645	0.70482147	0.060548067	0.12344818	0.58954445	0.25487622	-0.0015150407	0.73170732	0.083782633	0.037706673	0.5119154	0.2990003	-0.028316129	0.65171452	0.042255313	0.060496837	0.89159208	0.43136246	-0.11793062	0.82862993	0.42985916	0.17145319	0.89644961	0.41555099	0.0075010705	0.79220499	0.42896623	0.047939368	0.73303559	0.79362412	-0.10073469	0.75533682	0.80039058	0.24312128	0.80702271	0.84414363	-0.058683095	0.83394932	0.85765916	0.18215298	0.62943646	0.92138838	0.08490021	0.74809254	1.3297466	-0.11336096	0.77055404	1.3186934	0.24718824	0.68325706	1.3611133	0.072057331	0.70022631	1.011012	-0.16723586	0.71680384	1.0074546	0.32719171	0.86375537	0.82785308	-0.18828612	0.91664132	0.85994122	0.34162806
344	1.372	0.60405781	0.12408208	-0.067663415	0.84104736	0.035005117	0.1047527	0.57902786	0.25168819	-0.083843041	0.70479863	0.060723158	0.12357986	0.6014698	0.25397935	-0.0014700891	0.73174839	0.084099143	0.037841136	0.52270083	0.29673277	-0.028663669	0.65174907	0.042443891	0.060543458	0.90085537	0.43511884	-0.11709611	0.82851547	0.43033813	0.17148436	0.90581513	0.41953782	0.0084230848	0.79203036	0.42959331	0.04782565	0.73897107	0.79620853	-0.10093967	0.75984661	0.80145808	0.24346589	0.81298578	0.84662305	-0.058302462	0.83875175	0.85920428	0.18259991	0.63415983	0.92321367	0.085074985	0.75282225	1.3316777	-0.11325491	0.77548656	1.3209413	0.24717945	0.6880117	1.36292	0.072165115	0.70370368	1.0133264	-0.16658401	0.72299493	1.0093499	0.32728665	0.86501549	0.82851108	-0.18889828	0.92470419	0.86393601	0.33983679
